<svg width="163" height="57" viewBox="0 0 163 57" fill="none" xmlns="http://www.w3.org/2000/svg">
<g clip-path="url(#clip0)">
<path d="M0 55.8497C0 55.8497 93.5077 32.6946 162.785 49.0072L163 48.2532C163 48.2532 102.55 30.2588 1.16053 52.1798L0 55.8497Z" fill="white"/>
<path d="M44.8216 10.3858V14.2235C45.1646 13.4549 45.6052 12.4133 46.7801 11.4274C48.0519 10.331 49.9111 9.72766 51.7228 9.72766C52.6524 9.72766 53.582 9.89284 54.5116 10.2206C57.3989 11.3187 58.2309 13.6201 58.573 14.606C60.8245 10.3858 64.3969 9.78415 66.3053 9.78415C68.6536 9.78415 70.7089 10.6614 72.0799 12.0316C74.5249 14.4434 74.6234 17.0726 74.6234 23.6499V38.7797H67.4302V25.3496C67.4302 20.7999 67.3326 19.8687 66.5991 18.6636C65.8155 17.3482 64.6906 17.0726 63.6133 17.0726C61.6564 17.0726 60.6776 18.4985 60.5307 18.7176C59.748 20.0878 59.748 22.4448 59.748 24.7462V38.7797H52.5548V24.4732C52.5548 21.4032 52.5548 20.0339 51.8213 18.7732C51.283 17.842 50.2065 17.0735 48.8847 17.0735C48.248 17.0735 47.6121 17.2386 47.0246 17.5682C44.9209 18.7732 44.8717 20.8564 44.8717 26.2277V38.7805H37.6785V10.3858H44.8216Z" fill="white"/>
<path d="M103.227 10.3858H110.568L103.227 38.7797H96.5223L92.2648 19.5948L88.0565 38.7797H81.2555L73.9154 10.3858H81.2555L85.1208 28.1457L89.0838 10.3858H95.445L99.3613 28.1457L103.227 10.3858Z" fill="white"/>
<path d="M125.674 24.2532C125.674 26.8302 125.332 29.2959 123.816 31.16C122.543 32.6389 121.123 32.7493 120.683 32.7493C119.265 32.7493 117.649 31.8721 116.671 29.4046C116.085 27.9805 115.889 26.2808 115.889 24.5271C115.889 22.3344 116.182 20.0878 117.405 18.2794C118.285 17.0187 119.656 16.1971 120.977 16.1971C122.052 16.1971 123.13 16.7448 123.865 17.6212C124.794 18.6636 125.674 20.5825 125.674 24.2532ZM126.046 38.7797H133.092V10.331H126.193V14.0044C124.922 11.2631 122.719 9.67374 119.93 9.67374C115.134 9.67374 108.87 13.84 108.87 25.0218C108.87 33.9004 113.372 39.3831 119.391 39.3831C123.501 39.3831 125.165 36.9713 126.045 35.6558V38.7797H126.046Z" fill="white"/>
<path d="M149.704 10.3858H157.015L148.969 38.5606C148.382 40.5342 147.453 43.7685 146.034 45.3578C144.712 46.782 143.146 47.4401 137.323 47.4401C136.49 47.4401 136.149 47.3853 135.415 47.3314V41.0272H137.323C138.008 41.0272 139.623 41.0272 140.357 40.3151C140.943 39.8221 141.434 38.6154 141.434 37.4643C141.434 36.8609 141.139 35.7645 140.896 35.0516L133.066 10.3858H140.896L145.495 29.5151L149.704 10.3858Z" fill="white"/>
<path d="M21.6128 8.50978L25.473 23.453H17.9529L21.6128 8.50978ZM17.0505 -0.00598145L4.96812 38.7797H13.8414L16.0971 30.5387H27.4282L29.7348 38.7797H38.659L26.0741 -0.00598145H17.0505Z" fill="white"/>
</g>
<defs>
<clipPath id="clip0">
<rect width="163" height="57" fill="white"/>
</clipPath>
</defs>
</svg>
