<svg width="20" height="22" viewBox="0 0 20 22" fill="none" xmlns="http://www.w3.org/2000/svg">
    <path d="M10 0L19.5263 5.5V16.5L10 22L0.473721 16.5V5.5L10 0Z" fill="#9092FF"/>
    <g x="3" y="5" width="14" height="12" viewBox="0 0 14 12" fill="none">
            <path style="
                transform: translate(3px, 4px);
            " d="M11.5086 9.55309L9.26651 9.04593L9.07572 8.35558C9.6756 7.81824 10.0864 7.08024 10.2082 6.32319C10.5406 6.23849 10.7981 5.98066 10.8426 5.65721L10.9889 4.59839C11.0199 4.37498 10.9438 4.14893 10.7799 3.97951C10.6839 3.87997 10.5628 3.80481 10.4288 3.75875L10.4826 2.76187L10.7015 2.56335C11.031 2.24623 11.3043 1.70254 10.7331 0.913718C10.2942 0.307592 9.54861 0 8.51624 0C8.10891 0 7.17135 0 6.29817 0.530463C3.805 0.577588 3.46557 1.62526 3.46557 2.64703C3.46557 2.88474 3.52935 3.41996 3.57149 3.74289C3.42107 3.78577 3.28473 3.86518 3.17821 3.97477C3.01141 4.14578 2.93416 4.37289 2.96519 4.59894L3.11149 5.65775C3.15947 6.00292 3.44916 6.2745 3.81554 6.3391C3.93668 7.06702 4.32646 7.78119 4.8918 8.30955L4.68814 9.047L2.44606 9.55416C0.97827 9.88503 -0.0458984 11.0719 -0.0458984 12.441C-0.0458984 12.5871 0.0852055 12.7057 0.246733 12.7057H13.7074C13.8689 12.7057 14 12.5861 14 12.4399C14 11.0719 12.9758 9.88503 11.5086 9.55309Z" fill="white"/>
    </g>
</svg>
